<svg width="512" height="512" xmlns="http://www.w3.org/2000/svg" fill="#000000" version="1.1" xml:space="preserve">
 <g>
  <title>Layer 1</title>
  <rect fill="#fa4347" stroke="#000" x="-48" y="-16" width="624" height="535" id="svg_7"/>
  <g id="svg_1" stroke="null">
   <g id="svg_2" stroke="null">
    <path d="m176.70588,205.15544l-77.01016,77.01016c-7.54252,7.54188 -11.69571,17.56932 -11.69571,28.23532s4.15319,20.6928 11.69571,28.23532l64.92712,64.92712l80.09802,0l65.19615,-65.19615l-133.21113,-133.21176l0,-0.00001z" id="svg_3" fill="#3b2e42" stroke="null"/>
   </g>
  </g>
  <g id="svg_4" stroke="null">
   <g id="svg_5" stroke="null">
    <path d="m416.35696,178.1846l-76.39543,-76.11349c-15.49765,-15.44109 -40.71671,-15.44172 -56.21689,0l-76.66262,76.38033l132.6117,132.12229l76.66262,-76.3797c7.50918,-7.48146 11.64366,-17.42626 11.64366,-28.00503c0,-10.57877 -4.13448,-20.52419 -11.64302,-28.0044l-0.00002,0z" id="svg_6" fill="#3b2e42" stroke="null"/>
   </g>
  </g>
 </g>

</svg>