<svg width="186" height="186" xmlns="http://www.w3.org/2000/svg" fill="#000000" version="1.1" xml:space="preserve">
 <g>
  <title>Layer 1</title>
  <path stroke="null" fill="#fa4347" opacity="undefined" d="m-16.00001,0.1935l244.00002,0l0,227.48389l-244.00002,0l0,-227.48389z" id="svg_2"/>
  <path d="m197.95284,14.05684c0,-15.17306 -12.29968,-27.47274 -27.47274,-27.47274l-155.0545,0c-15.17306,0 -27.47274,12.29968 -27.47274,27.47274l0,155.05337c0,15.17419 12.29968,27.47387 27.47274,27.47387l155.05337,0c15.17419,0 27.47387,-12.29968 27.47387,-27.47274l0,-155.0545zm-162.86176,144.00692c-4.55,1.22048 -8.71387,-2.94339 -7.49339,-7.49339l7.54532,-28.12419l28.07113,28.07113l-28.12306,7.54645zm121.22983,-102.27789l-83.0787,83.07983l-27.94242,-27.94242l83.0787,-83.0787c3.94032,-3.94032 10.32726,-3.94032 14.26758,0l13.67484,13.67484c3.93919,3.93919 3.93919,10.32613 0,14.26645z" id="svg_1" fill="#3b2e42" stroke="null"/>
 </g>

</svg>