<svg width="25" height="25" xmlns="http://www.w3.org/2000/svg" fill="#000000">

 <g>
  <title>Layer 1</title>
  <ellipse stroke="null" ry="11.8249" rx="10.67183" id="svg_2" cy="13.1373" cx="12.51562" fill="#3b2e42"/>
  <path stroke="null" fill="#fa4347" id="svg_1" d="m12.50401,0.00002l0.09454,0c2.27902,0 4.41166,0.62312 6.23833,1.70774l-0.05591,-0.03151c1.90189,1.11206 3.44191,2.65208 4.52246,4.49501l0.03151,0.05896c1.05717,1.79821 1.68131,3.96033 1.68131,6.26781c0,5.49526 -3.54051,10.16511 -8.46449,11.85049l-0.08844,0.02643c-0.06404,0.02033 -0.13723,0.03151 -0.21245,0.03151c-0.16467,0 -0.31715,-0.05489 -0.44015,-0.14638l0.00203,0.00102c-0.13011,-0.1169 -0.21143,-0.28564 -0.21143,-0.47369c0,-0.00508 0,-0.01017 0,-0.01423l0,0.00102q0,-0.04879 0.00813,-1.24624t0.00813,-2.18957c0.00712,-0.07624 0.01118,-0.16366 0.01118,-0.25311c0,-0.80508 -0.32833,-1.5329 -0.85794,-2.05844c0.6282,-0.06201 1.19542,-0.16569 1.74637,-0.31004l-0.07725,0.01728c0.58246,-0.16264 1.09072,-0.37916 1.56238,-0.6526l-0.03151,0.01728c0.51639,-0.28462 0.95349,-0.6465 1.31333,-1.07547l0.0061,-0.00712c0.37814,-0.48386 0.67395,-1.05311 0.85387,-1.67216l0.00915,-0.03558c0.21245,-0.69428 0.33443,-1.49224 0.33443,-2.31866c0,-0.04574 0,-0.0925 -0.00102,-0.13825l0,0.00712c0,-0.02236 0.00102,-0.04778 0.00102,-0.07319c0,-1.26861 -0.48996,-2.42235 -1.28995,-3.28333l0.00305,0.00305c0.17077,-0.44726 0.26938,-0.96365 0.26938,-1.50342c0,-0.65972 -0.14739,-1.28385 -0.41067,-1.84395l0.01118,0.02643c-0.1169,-0.02236 -0.25006,-0.03558 -0.38729,-0.03558c-0.33951,0 -0.65972,0.07929 -0.94434,0.21957l0.0122,-0.00508c-0.57738,0.21347 -1.0714,0.4554 -1.53697,0.73799l0.03863,-0.02236l-0.61906,0.39034c-0.93722,-0.26836 -2.01371,-0.42287 -3.12577,-0.42287s-2.18855,0.15451 -3.20913,0.4432l0.08234,-0.02033q-0.26023,-0.17891 -0.69224,-0.44015c-0.37916,-0.21753 -0.82744,-0.42795 -1.293,-0.60482l-0.06709,-0.02236c-0.29784,-0.15654 -0.65057,-0.24803 -1.02566,-0.24803c-0.12605,0 -0.25006,0.01017 -0.37001,0.0305l0.01321,-0.00203c-0.25209,0.53265 -0.39949,1.15781 -0.39949,1.81752c0,0.53977 0.0986,1.05717 0.27954,1.53392l-0.01017,-0.02948c-0.79796,0.85794 -1.2869,2.01168 -1.2869,3.28028c0,0.02541 0,0.05184 0.00102,0.07725l0,-0.00407c-0.00102,0.03964 -0.00102,0.08539 -0.00102,0.13215c0,0.82236 0.12198,1.61727 0.34968,2.36542l-0.01525,-0.05794c0.19212,0.65362 0.48386,1.22185 0.86403,1.72095l-0.00915,-0.01321c0.35985,0.44218 0.79491,0.80609 1.28792,1.07954l0.02236,0.01118c0.43913,0.25616 0.94841,0.47268 1.48411,0.62414l0.04676,0.01118c0.47369,0.12706 1.04091,0.23075 1.62134,0.28869l0.04676,0.00407c-0.43812,0.43507 -0.72986,1.01651 -0.79694,1.66505l-0.00102,0.0122c-0.21042,0.10267 -0.4554,0.18602 -0.71054,0.2399l-0.02135,0.00407c-0.26023,0.05184 -0.55806,0.08132 -0.86403,0.08132c-0.02236,0 -0.04473,0 -0.06709,0l0.00305,0c-0.40051,-0.00813 -0.76848,-0.13825 -1.07242,-0.35375l0.0061,0.00407c-0.37713,-0.26328 -0.68208,-0.60482 -0.89555,-1.00228l-0.00712,-0.01525c-0.20127,-0.34155 -0.46658,-0.62414 -0.78068,-0.84065l-0.00915,-0.0061c-0.22872,-0.17179 -0.49809,-0.30597 -0.78881,-0.38627l-0.01626,-0.00407l-0.32528,-0.04879c-0.02338,-0.00203 -0.05083,-0.00305 -0.07827,-0.00305c-0.14231,0 -0.27751,0.02846 -0.40051,0.07827l0.00712,-0.00305q-0.13011,0.07319 -0.08132,0.18704c0.03964,0.08742 0.08844,0.16264 0.14739,0.22872l-0.00102,-0.00102c0.06201,0.07319 0.13215,0.13723 0.20838,0.19314l0.00305,0.00203l0.11385,0.08132c0.28767,0.15044 0.52452,0.35985 0.70444,0.61296l0.00407,0.0061c0.19415,0.24091 0.36493,0.51334 0.50216,0.80508l0.01017,0.0244l0.16264,0.37408c0.13723,0.40864 0.38627,0.75019 0.71156,0.9972l0.00508,0.00407c0.30495,0.23786 0.67293,0.40864 1.07445,0.48589l0.01626,0.00203c0.33545,0.06506 0.72579,0.10572 1.12426,0.11385l0.00712,0c0.04574,0.00203 0.0986,0.00203 0.15248,0.00203c0.26531,0 0.52554,-0.02135 0.77966,-0.06302l-0.02745,0.00407l0.37408,-0.06506q0,0.61906 0.00813,1.44141t0.00813,0.88741l0,0.01423c0,0.18805 -0.08132,0.3568 -0.21143,0.47369l-0.00102,0c-0.12096,0.09047 -0.27243,0.14536 -0.43812,0.14536c-0.07624,0 -0.14943,-0.01118 -0.21753,-0.03253l0.00508,0.00102c-5.01038,-1.71689 -8.54784,-6.38674 -8.54784,-11.88302c0,-2.30545 0.6221,-4.46553 1.70876,-6.32168l-0.03253,0.05896c1.11206,-1.90189 2.65208,-3.44191 4.49501,-4.52246l0.05896,-0.03151c1.76771,-1.05107 3.89832,-1.67216 6.17327,-1.67216l0.09962,0l-0.00508,0l0,0.00102zm-7.76615,17.95769q0.04879,-0.11385 -0.11385,-0.19517q-0.16264,-0.04879 -0.21143,0.03253q-0.04879,0.11385 0.11385,0.19517q0.14638,0.09759 0.21143,-0.03253zm0.50521,0.554q0.11385,-0.08132 -0.03253,-0.26023q-0.16264,-0.14638 -0.26023,-0.04879q-0.11385,0.08132 0.03253,0.26023q0.16163,0.15959 0.26023,0.04778l0,0.00102zm0.48793,0.73189q0.14638,-0.11385 0,-0.30902q-0.13011,-0.21143 -0.27649,-0.09759q-0.14638,0.08132 0,0.29276t0.27649,0.11385zm0.6831,0.68411q0.13011,-0.13011 -0.06506,-0.30902q-0.19517,-0.19517 -0.32528,-0.04879q-0.14638,0.13011 0.06506,0.30902q0.19517,0.19517 0.32528,0.04473l0,0.00407zm0.92807,0.4066q0.04879,-0.17891 -0.21143,-0.26023q-0.24396,-0.06506 -0.30902,0.11385t0.21143,0.24396q0.24396,0.0986 0.30902,-0.09759zm1.02566,0.08132q0,-0.21143 -0.27649,-0.17891q-0.26023,0 -0.26023,0.17891q0,0.21143 0.27649,0.17891q0.26023,0.00102 0.26023,-0.17789l0,-0.00102zm0.94434,-0.16264q-0.03253,-0.17891 -0.29276,-0.14638q-0.26023,0.04879 -0.2277,0.24396t0.29276,0.13011t0.22872,-0.2277l-0.00102,0z"/>
 </g>
</svg>