<svg width="512" height="512" xmlns="http://www.w3.org/2000/svg" xml:space="preserve" version="1.1" fill="#000000">

 <g>
  <title>Layer 1</title>
  <ellipse ry="177.5" rx="181" id="svg_2" cy="261.5" cx="248" stroke="#fa4347" fill="#3b2e42"/>
  <g stroke-width="0" id="SVGRepo_bgCarrier"/>
  <g stroke-linejoin="round" stroke-linecap="round" id="SVGRepo_tracerCarrier"/>
  <g id="SVGRepo_iconCarrier">
   <path fill="#fa4347" id="svg_1" d="m256,0c-141.4,0 -256,114.6 -256,256s114.6,256 256,256s256,-114.6 256,-256s-114.6,-256 -256,-256zm-71.6,363.1l-49.9,0l0,-159.7l49.9,0l0,159.7zm-26.3,-179.7l-0.4,0c-18.1,0 -29.8,-12.2 -29.8,-27.7c0,-15.8 12.1,-27.7 30.5,-27.7c18.4,0 29.7,11.9 30.1,27.7c0.1,15.4 -11.6,27.7 -30.4,27.7zm225.9,179.7l-56.6,0l0,-82.6c0,-21.6 -8.8,-36.4 -28.3,-36.4c-14.9,0 -23.2,10 -27,19.6c-1.4,3.4 -1.2,8.2 -1.2,13.1l0,86.3l-56.1,0c0,0 0.7,-146.4 0,-159.7l56.1,0l0,25.1c3.3,-11 21.2,-26.6 49.8,-26.6c35.5,0 63.3,23 63.3,72.4l0,88.8z"/>
  </g>
 </g>
</svg>