<svg width="512" height="512" xmlns="http://www.w3.org/2000/svg" xml:space="preserve" version="1.1">

 <g>
  <title>Layer 1</title>
  <g id="svg_1">
   <path id="svg_2" fill="#3b2e42" d="m256,0c-141.383,0 -256,114.618 -256,256c0,141.383 114.617,256 256,256c141.382,0 256,-114.617 256,-256c0,-141.382 -114.618,-256 -256,-256zm117.649,366.297l-235.298,0l0,-44.117l235.298,0l0,44.117zm0,-88.242l-235.298,0l0,-44.102l235.298,0l0,44.102zm0,-88.227l-235.298,0l0,-44.117l235.298,0l0,44.117z" class="st0"/>
  </g>
  <path stroke="null" id="svg_3" d="m138,121l237.00002,0l0,69.47762l-237.00002,0l0,-69.47762z" opacity="undefined" fill="#fa4347"/>
  <path stroke="null" id="svg_4" d="m138,222l237.00002,0l0,69.47762l-237.00002,0l0,-69.47762z" opacity="undefined" fill="#fa4347"/>
  <path stroke="null" id="svg_5" d="m138,322l237.00002,0l0,69.47762l-237.00002,0l0,-69.47762z" opacity="undefined" fill="#fa4347"/>
 </g>
</svg>